{"asset":{"generator":"Khronos glTF Blender I/O v4.2.70","version":"2.0"},"extensionsUsed":["KHR_materials_specular"],"scene":0,"scenes":[{"name":"Scene","nodes":[0]}],"nodes":[{"mesh":0,"name":"HairDryer","rotation":[0.70710688829422,0,0,0.7071066498756409],"scale":[0.09999999403953552,0.09999999403953552,0.09999999403953552],"translation":[0,0,0]}],"materials":[{"doubleSided":true,"extensions":{"KHR_materials_specular":{"specularColorFactor":[2,2,2]}},"name":"Hair_dryer_shader","pbrMetallicRoughness":{"baseColorTexture":{"index":0,"texCoord":0},"metallicRoughnessTexture":{"index":1,"texCoord":0},"roughnessFactor":0.12056738138198853,"baseColorFactor":[1,1,1,1],"metallicFactor":1},"emissiveFactor":[0,0,0],"alphaMode":"OPAQUE"}],"meshes":[{"name":"HairDryer.002","primitives":[{"attributes":{"POSITION":0,"NORMAL":1,"TEXCOORD_0":2},"indices":3,"material":0,"mode":4}]}],"textures":[{"sampler":0,"source":0},{"sampler":0,"source":1}],"images":[{"bufferView":4,"mimeType":"image/png","name":"substancedryingfan_dryingfan_BaseColor"},{"bufferView":5,"mimeType":"image/png","name":"substancedryingfan_dryingfan_Metallic"}],"accessors":[{"bufferView":0,"componentType":5126,"count":19380,"max":[31.221649169921875,16.22339630126953,4.319435119628906],"min":[-31.146026611328125,-15.94828987121582,-4.319435119628906],"type":"VEC3","byteOffset":0},{"bufferView":1,"componentType":5126,"count":19380,"type":"VEC3","byteOffset":0},{"bufferView":2,"componentType":5126,"count":19380,"type":"VEC2","byteOffset":0},{"bufferView":3,"componentType":5123,"count":35118,"type":"SCALAR","byteOffset":0}],"bufferViews":[{"buffer":0,"byteLength":232560,"byteOffset":0,"target":34962,"byteStride":12},{"buffer":0,"byteLength":232560,"byteOffset":232560,"target":34962,"byteStride":12},{"buffer":0,"byteLength":155040,"byteOffset":465120,"target":34962,"byteStride":8},{"buffer":0,"byteLength":70236,"byteOffset":620160,"target":34963},{"buffer":0,"byteOffset":690400,"byteLength":1018229},{"buffer":0,"byteOffset":1708632,"byteLength":59571}],"samplers":[{"magFilter":9729,"minFilter":9987,"wrapS":10497,"wrapT":10497}],"buffers":[{"name":"buffer","byteLength":1768208,"uri":"data:application/octet-stream;base64,"}]}
